<?xml version="1.0"?>
<svg xmlns="http://www.w3.org/2000/svg" id="Layer_1" data-name="Layer 1" viewBox="0 0 512 512" width="512" height="512"><title>Compass</title><path d="M283,126.214V100.648c15-9.187,25.671-26.007,25.671-45.2a52.663,52.663,0,0,0-105.326,0A53.424,53.424,0,0,0,229,100.648v25.566c-93,13.111-165.482,93.55-165.482,190.531,0,106.1,86.35,192.416,192.449,192.416s192.5-86.318,192.5-192.416C448.465,219.764,376,139.325,283,126.214ZM215.4,55.445A40.6,40.6,0,1,1,256,96.05,40.651,40.651,0,0,1,215.4,55.445ZM241,105.9a53.329,53.329,0,0,0,30,0v19q-7.5-.564-15-.569t-15,.569Zm15,391.264c-99.481,0-180.416-80.934-180.416-180.416S156.519,136.329,256,136.329s180.416,80.934,180.416,180.416S355.481,497.161,256,497.161Z"/><path d="M256,168.886c-81.519,0-147.84,66.311-147.858,147.827a5.849,5.849,0,0,0,.034,2.7,147.36,147.36,0,0,0,42.015,100.493,5.513,5.513,0,0,0,2.643,2.642A147.357,147.357,0,0,0,256,464.6c81.529,0,147.858-66.33,147.858-147.859S337.529,168.886,256,168.886ZM374,324h17.664a135.356,135.356,0,0,1-36,84.967l-12.219-12.218a6,6,0,1,0-8.484,8.485l12.177,12.177A135.327,135.327,0,0,1,261,452.5V435a6,6,0,0,0-12,0v17.425a135.346,135.346,0,0,1-84.683-35.513L176,405.234a6,6,0,1,0-8.484-8.485l-11.678,11.678A135.348,135.348,0,0,1,120.336,324H137a6,6,0,0,0,0-12H120.233a135.326,135.326,0,0,1,35.1-86.393l12.177,12.177A6,6,0,0,0,176,229.3L163.778,217.08A135.35,135.35,0,0,1,249,181.064V199a6,6,0,0,0,12,0V180.987a135.337,135.337,0,0,1,86.682,35.59L334.961,229.3a6,6,0,0,0,8.486,8.486l12.721-12.721A135.335,135.335,0,0,1,391.767,312H374a6,6,0,0,0,0,12Z"/><path d="M318.824,245.673l-78.387,47.819a5.99,5.99,0,0,0-1.937,1.9l-53.511,84.08a6,6,0,0,0,8.283,8.284l84.081-53.511a6.01,6.01,0,0,0,1.9-1.937l47.818-78.388a6,6,0,0,0-8.247-8.247Zm-49.09,79.2-60.122,38.263,38.263-60.122,56.052-34.192Z"/><path d="M283.991,55.445A27.991,27.991,0,1,0,256,83.436,28.023,28.023,0,0,0,283.991,55.445Zm-43.982,0A15.991,15.991,0,1,1,256,71.436,16.01,16.01,0,0,1,240.009,55.445Z"/></svg>
