<?xml version="1.0" encoding="iso-8859-1"?>
<!-- Generator: Adobe Illustrator 19.0.0, SVG Export Plug-In . SVG Version: 6.00 Build 0)  -->
<svg version="1.1" id="Capa_1" xmlns="http://www.w3.org/2000/svg" xmlns:xlink="http://www.w3.org/1999/xlink" x="0px" y="0px"
	 viewBox="0 0 480 480" style="enable-background:new 0 0 480 480;" xml:space="preserve">
<g>
	<g>
		<g>
			<path d="M456,24H24C10.745,24,0,34.745,0,48v304c0,13.255,10.745,24,24,24h184v32h-64c-13.255,0-24,10.745-24,24v16
				c0,4.418,3.582,8,8,8h224c4.418,0,8-3.582,8-8v-16c0-13.255-10.745-24-24-24h-56v-32h176c13.255,0,24-10.745,24-24V48
				C480,34.745,469.255,24,456,24z M336,424c4.418,0,8,3.582,8,8v8H136v-8c0-4.418,3.582-8,8-8H336z M224,408v-32h40v32H224z
				 M464,352c0,4.418-3.582,8-8,8H24c-4.418,0-8-3.582-8-8v-24h448V352z M464,312H16V88.664h448V312z M464,72.664H16V48
				c0-4.418,3.582-8,8-8h432c4.418,0,8,3.582,8,8V72.664z"/>
			<path d="M40,120h17.752l22.4,105.6c0.761,3.728,4.043,6.405,7.848,6.4h96c3.802,0.001,7.08-2.675,7.84-6.4l16-80
				c0.884-4.329-1.909-8.555-6.238-9.438C201.075,136.054,200.538,136,200,136H78.24l-6.48-25.936
				c-0.889-3.563-4.088-6.063-7.76-6.064H40c-4.418,0-8,3.582-8,8S35.582,120,40,120z M190.24,152l-12.792,64H94.552l-12.8-64
				H190.24z"/>
			<path d="M104,240c-13.255,0-24,10.745-24,24s10.745,24,24,24s24-10.745,24-24S117.255,240,104,240z M104,272
				c-4.418,0-8-3.582-8-8s3.582-8,8-8s8,3.582,8,8S108.418,272,104,272z"/>
			<path d="M176,240c-13.255,0-24,10.745-24,24s10.745,24,24,24s24-10.745,24-24S189.255,240,176,240z M176,272
				c-4.418,0-8-3.582-8-8s3.582-8,8-8s8,3.582,8,8S180.418,272,176,272z"/>
			<path d="M248,144h144c4.418,0,8-3.582,8-8s-3.582-8-8-8H248c-4.418,0-8,3.582-8,8S243.582,144,248,144z"/>
			<path d="M424,144h16c4.418,0,8-3.582,8-8s-3.582-8-8-8h-16c-4.418,0-8,3.582-8,8S419.582,144,424,144z"/>
			<path d="M248,176h144c4.418,0,8-3.582,8-8s-3.582-8-8-8H248c-4.418,0-8,3.582-8,8S243.582,176,248,176z"/>
			<path d="M424,176h16c4.418,0,8-3.582,8-8s-3.582-8-8-8h-16c-4.418,0-8,3.582-8,8S419.582,176,424,176z"/>
			<path d="M248,208h144c4.418,0,8-3.582,8-8s-3.582-8-8-8H248c-4.418,0-8,3.582-8,8S243.582,208,248,208z"/>
			<path d="M424,208h16c4.418,0,8-3.582,8-8s-3.582-8-8-8h-16c-4.418,0-8,3.582-8,8S419.582,208,424,208z"/>
			<path d="M248,240h144c4.418,0,8-3.582,8-8s-3.582-8-8-8H248c-4.418,0-8,3.582-8,8S243.582,240,248,240z"/>
			<path d="M424,240h16c4.418,0,8-3.582,8-8s-3.582-8-8-8h-16c-4.418,0-8,3.582-8,8S419.582,240,424,240z"/>
		</g>
	</g>
</g>
<g>
</g>
<g>
</g>
<g>
</g>
<g>
</g>
<g>
</g>
<g>
</g>
<g>
</g>
<g>
</g>
<g>
</g>
<g>
</g>
<g>
</g>
<g>
</g>
<g>
</g>
<g>
</g>
<g>
</g>
</svg>
